<?xml version="1.0" ?><svg viewBox="0 0 48 48" xmlns="http://www.w3.org/2000/svg"><defs><style>.cls-1{fill:#dad7e5;}.cls-2{fill:#edebf2;}.cls-3{fill:#7c7d7d;}.cls-4{fill:#747575;}.cls-5{fill:#919191;}.cls-6{fill:#374f68;}.cls-7{fill:#425b72;}.cls-8{fill:#9dcc6b;}.cls-9{fill:#231f20;}</style></defs><title/><g data-name="Microscope Virus" id="Microscope_Virus"><rect class="cls-1" height="4" rx="1" width="37" x="3" y="43"/><path class="cls-2" d="M40,44v2H8a3,3,0,0,1-3-3H39A1,1,0,0,1,40,44Z"/><path class="cls-1" d="M33,43H23c1.58-9.51,1.34-10.84,3.71-11.76a3.56,3.56,0,0,1,3.58.6C31.56,32.9,31.39,33.23,33,43Z"/><path class="cls-2" d="M32.67,41H31.08A5.16,5.16,0,0,1,26,35a21.34,21.34,0,0,1,.71-3.76A3.54,3.54,0,0,1,31.49,34C32.09,37.53,31.83,36,32.67,41Z"/><path class="cls-3" d="M28,31a3.53,3.53,0,0,0-3.49,3L24,37H18V31Z"/><path class="cls-4" d="M28,31H18v2h6.83A3.54,3.54,0,0,1,28,31Z"/><path class="cls-3" d="M32,36.82,31.49,34A3.52,3.52,0,0,0,28,31c2.68,0,5.55.19,8.36-2.64A8.92,8.92,0,0,0,38.94,21c-.13-1.18-.43-.51,1.08-1.4a9.87,9.87,0,0,0,3.69-3.73A15,15,0,0,1,32,36.82Z"/><path class="cls-4" d="M31.14,32.92A9,9,0,0,0,38.94,23,9,9,0,0,1,30,31H28A3.5,3.5,0,0,1,31.14,32.92Z"/><path class="cls-5" d="M43.71,15.91a10,10,0,0,1-2.34,2.79A14.86,14.86,0,0,1,33,36.62,15,15,0,0,0,43.71,15.91Z"/><rect class="cls-1" height="12" width="8" x="10" y="5"/><path class="cls-2" d="M18,5c0,10.61-.1,10,0,10a6,6,0,0,1-6-6V5Z"/><path class="cls-3" d="M17,17v3a1,1,0,0,1-1,1H12a1,1,0,0,1-1-1V17Z"/><path class="cls-5" d="M17,17v3H15a3,3,0,0,1-3-3Z"/><path class="cls-3" d="M17,2V5H11V2a1,1,0,0,1,1-1h4A1,1,0,0,1,17,2Z"/><path class="cls-5" d="M17,2V4H15a3,3,0,0,1-3-3h4A1,1,0,0,1,17,2Z"/><path class="cls-6" d="M24,29a2,2,0,0,1-2,2H10a2,2,0,0,1,0-4H22A2,2,0,0,1,24,29Z"/><path class="cls-7" d="M24,29H12a2,2,0,0,1-2-2H22A2,2,0,0,1,24,29Z"/><path class="cls-3" d="M25.2,13H22v2H18V5h9A9.94,9.94,0,0,0,25.2,13Z"/><path class="cls-5" d="M27,5a9.93,9.93,0,0,0-2,6,5,5,0,0,1-5-5V5Z"/><path class="cls-1" d="M45,11A10,10,0,1,1,35,1,10,10,0,0,1,45,11Z"/><path class="cls-4" d="M25.2,13H23a9.8,9.8,0,0,1,.27-2.31A5,5,0,0,0,25,11,10,10,0,0,0,25.2,13Z"/><path class="cls-3" d="M27,5a10.23,10.23,0,0,0-2,6,5,5,0,0,1-1.73-.31A10,10,0,0,1,27,5Z"/><path class="cls-1" d="M27,5l0,0h0Z"/><path class="cls-4" d="M41,19A9.79,9.79,0,0,1,38.94,21C38.77,19.49,38.46,20.93,41,19Z"/><path class="cls-2" d="M43,17a10.66,10.66,0,0,1-2.18,1.23A10,10,0,0,1,27,9a9.78,9.78,0,0,1,2-6,9.83,9.83,0,0,1,6-2A10,10,0,0,1,43,17Z"/><circle class="cls-8" cx="35" cy="11" r="4"/><path class="cls-9" d="M28,34a1,1,0,0,0,0,2A1,1,0,0,0,28,34Z"/><path class="cls-9" d="M46,11C46,.71,33.08-3.92,26.52,4H18V1a1,1,0,0,0-1-1H11a1,1,0,0,0-1,1V4A1,1,0,0,0,9,5V17a1,1,0,0,0,1,1v3a1,1,0,0,0,1,1h6a1,1,0,0,0,1-1V18a1,1,0,0,0,1-1V16h3a1,1,0,0,0,1-1V14h1.43a10.84,10.84,0,0,0,2.12,4l-4.26,4.26A1,1,0,0,0,23,24c.57,0,.44,0,5-4.55a10.92,10.92,0,0,0,10,2.13,7.88,7.88,0,0,1-2.33,6.07C32.82,30.5,30.05,30,24.82,30A3,3,0,0,0,22,26H10a3,3,0,0,0,0,6h7v4H9a1,1,0,0,0,0,2H22.82l-.67,4H3a1,1,0,0,0-1,1v4a1,1,0,0,0,1,1H40a1,1,0,0,0,1-1V43a1,1,0,0,0-1-1H33.85l-.73-4.39A16,16,0,0,0,44.81,16,11,11,0,0,0,46,11ZM11,6h6V16H11Zm1-4h4V4H12Zm4,18H12V18h4Zm6-8a1,1,0,0,0-1,1v1H19V6h6.21a10.86,10.86,0,0,0-1.16,6Zm4-1a9,9,0,1,1,9,9A9,9,0,0,1,26,11ZM10,28H22a1,1,0,0,1,0,2H10A1,1,0,0,1,10,28Zm9,8V32h5.25c-.71,1-.71,1.66-1.1,4ZM39,46H4V44H39ZM24.18,42l1.31-7.88a2.55,2.55,0,0,1,5,0L31.82,42Zm8.61-6.36c-.31-1.85-.33-2.68-1.14-3.78a10,10,0,0,0,8.27-11,11,11,0,0,0,3.5-2.77A14,14,0,0,1,32.79,35.64Z"/><path class="cls-9" d="M41,12a1,1,0,0,0,0-2c-2,0-.5.26-1.83-1.75L40,7.47a1,1,0,0,0-1.42-1.42l-.78.78C35.82,5.55,36,6.92,36,5a1,1,0,0,0-2,0c0,2,.26.5-1.75,1.83l-.78-.78a1,1,0,0,0-1.42,1.42l.78.78C29.55,10.18,30.92,10,29,10a1,1,0,0,0,0,2c2,0,.5-.26,1.83,1.75l-.78.78A1,1,0,0,0,31.47,16c1.42-1.42.15-.54,2.53,0V17a1,1,0,0,0,2,0V15.9c2.32-.47,1.13-1.35,2.53,0A1,1,0,0,0,40,14.53l-.78-.78C40.45,11.82,39.08,12,41,12Zm-6,2a3,3,0,1,1,3-3A3,3,0,0,1,35,14Z"/><path class="cls-9" d="M34,9a1,1,0,0,0,0,2A1,1,0,0,0,34,9Z"/><path class="cls-9" d="M36,11a1,1,0,0,0,0,2A1,1,0,0,0,36,11Z"/><path class="cls-9" d="M22,8a1,1,0,0,0,0,2A1,1,0,0,0,22,8Z"/></g></svg>